<svg xmlns="http://www.w3.org/2000/svg" viewBox="0 0 800 1200">
  <!-- Styles -->
  <style>
    .box { fill: #f0f8ff; stroke: #4682b4; stroke-width: 2.5; }
    .decision { fill: #fff0f5; stroke: #db7093; stroke-width: 2.5; }
    .terminator { fill: #e6e6fa; stroke: #9370db; stroke-width: 2.5; }
    .arrow { stroke: #2f4f4f; stroke-width: 2.5; marker-end: url(#arrowhead); fill: none; }
    .text { font-family: Arial, sans-serif; font-size: 16px; fill: #000; text-anchor: middle; }
    .small-text { font-family: Arial, sans-serif; font-size: 14px; fill: #000; text-anchor: middle; }
    .arrow-text { font-family: Arial, sans-serif; font-size: 14px; fill: #000; font-weight: bold; text-anchor: middle; }
  </style>
  
  <!-- Arrow marker definition -->
  <defs>
    <marker id="arrowhead" markerWidth="10" markerHeight="7" refX="9" refY="3.5" orient="auto">
      <polygon points="0 0, 10 3.5, 0 7" fill="#2f4f4f" />
    </marker>
  </defs>
  
  <!-- Background -->
  <rect x="0" y="0" width="800" height="1200" fill="#ffffff" />
  
  <!-- Start node -->
  <ellipse cx="400" cy="40" rx="80" ry="25" class="terminator" />
  <text x="400" y="45" class="text">Start</text>
  
  <!-- Request method decision -->
  <polygon points="400,80 480,120 400,160 320,120" class="decision" />
  <text x="400" y="125" class="text">Metoda?</text>
  
  <!-- POST Flow -->
  <rect x="150" y="190" width="200" height="50" rx="10" class="box" />
  <text x="250" y="220" class="small-text">Získání dat z formuláře</text>
  
  <rect x="150" y="260" width="200" height="50" rx="10" class="box" />
  <text x="250" y="290" class="small-text">Rozdělení dat podle středníků</text>
  
  <rect x="150" y="330" width="200" height="50" rx="10" class="box" />
  <text x="250" y="360" class="small-text">Vytvoření list_of_inputs</text>
  
  <rect x="150" y="400" width="200" height="50" rx="10" class="box" />
  <text x="250" y="430" class="small-text">Zjištění maximálního počtu otázek</text>
  
  <rect x="150" y="470" width="200" height="50" rx="10" class="box" />
  <text x="250" y="500" class="small-text">Doplnění prázdných hodnot</text>
  
  <rect x="150" y="540" width="200" height="50" rx="10" class="box" />
  <text x="250" y="570" class="small-text">Získání category_id z DB</text>
  
  <rect x="150" y="610" width="200" height="50" rx="10" class="box" />
  <text x="250" y="640" class="small-text">Získání posledního quiz_id z DB</text>
  
  <rect x="150" y="680" width="200" height="50" rx="10" class="box" />
  <text x="250" y="695" class="small-text">FOR cyklus pro každou otázku</text>
  <text x="250" y="715" class="small-text">(i = 0 až max-1)</text>
  
  <rect x="150" y="750" width="200" height="50" rx="10" class="box" />
  <text x="250" y="780" class="small-text">Vložení otázky do DB</text>
  
  <rect x="150" y="820" width="200" height="50" rx="10" class="box" />
  <text x="250" y="850" class="small-text">Vložení správné odpovědi do DB</text>
  
  <rect x="150" y="890" width="200" height="50" rx="10" class="box" />
  <text x="250" y="915" class="small-text">FOR cyklus pro špatné odpovědi</text>
  <text x="250" y="935" class="small-text">(j = 2 až 4)</text>
  
  <rect x="150" y="960" width="200" height="50" rx="10" class="box" />
  <text x="250" y="990" class="small-text">Vložení špatné odpovědi do DB</text>
  
  <rect x="150" y="1030" width="200" height="50" rx="10" class="box" />
  <text x="250" y="1060" class="small-text">Commit změn do DB</text>
  
  <rect x="150" y="1100" width="200" height="50" rx="10" class="box" />
  <text x="250" y="1130" class="small-text">Přesměrování na stránku kvízů</text>
  
  <!-- GET flow -->
  <rect x="600" y="190" width="160" height="50" rx="10" class="box" />
  <text x="680" y="220" class="small-text">Zobrazení formuláře pro přidání kvízu</text>
  
  <!-- End node -->
  <ellipse cx="400" cy="1170" rx="80" ry="25" class="terminator" />
  <text x="400" y="1175" class="text">Konec</text>
  
  <!-- Arrows -->
  <!-- Main flow -->
  <path d="M 400,65 L 400,80" class="arrow" />
  <path d="M 320,120 L 250,120 L 250,190" class="arrow" />
  <text x="280" y="105" class="arrow-text">POST</text>
  <path d="M 480,120 L 680,120 L 680,190" class="arrow" />
  <text x="580" y="105" class="arrow-text">GET</text>
  
  <!-- POST flow -->
  <path d="M 250,240 L 250,260" class="arrow" />
  <path d="M 250,310 L 250,330" class="arrow" />
  <path d="M 250,380 L 250,400" class="arrow" />
  <path d="M 250,450 L 250,470" class="arrow" />
  <path d="M 250,520 L 250,540" class="arrow" />
  <path d="M 250,590 L 250,610" class="arrow" />
  <path d="M 250,660 L 250,680" class="arrow" />
  
  <!-- Loop arrow back to vložení otázky from commit -->
  <path d="M 350,730 L 400,730 L 400,1060 L 300,1060" class="arrow" />
  <text x="420" y="730" class="arrow-text">Pro každou otázku</text>
  
  <path d="M 250,730 L 250,750" class="arrow" />
  <path d="M 250,800 L 250,820" class="arrow" />
  <path d="M 250,870 L 250,890" class="arrow" />
  
  <!-- Loop arrow back to vložení špatné odpovědi from vložení špatné odpovědi -->
  <path d="M 350,920 L 380,920 L 380,990 L 300,990" class="arrow" />
  <text x="400" y="920" class="arrow-text">Pro každou špatnou odpověď</text>
  
  <path d="M 250,940 L 250,960" class="arrow" />
  <path d="M 250,1010 L 250,1030" class="arrow" />
  
  <path d="M 250,1080 L 250,1100" class="arrow" />
  
  <path d="M 250,1150 L 250,1170 L 320,1170" class="arrow" />
  
  <!-- GET flow -->
  <path d="M 680,240 L 680,1170 L 480,1170" class="arrow" />
  
  <!-- Title -->
  <text x="400" y="20" class="text" style="font-size: 20px; font-weight: bold;">Vývojový diagram funkce add_quiz()</text>
</svg>
